<?xml version="1.0" encoding="utf-8"?>
<!-- Generator: Adobe Illustrator 24.2.1, SVG Export Plug-In . SVG Version: 6.00 Build 0)  -->
<svg version="1.1" id="Layer_1" xmlns="http://www.w3.org/2000/svg" xmlns:xlink="http://www.w3.org/1999/xlink" x="0px" y="0px"
	 viewBox="0 0 610.9 242.9" style="enable-background:new 0 0 610.9 242.9;" xml:space="preserve">
<style type="text/css">
	.st0{fill:#2B3D50;}
	.st1{fill:#FFFFFF;}
	.st2{fill:#899BA1;}
</style>
<g>
	<path class="st0" d="M558,78c-4.4-5-10.4-7.7-15.2-9.6c-7-2.7-12.4-3.3-18.4-3.3c-2,0-5,0.2-8.5,0.5l1.1-4.9
		c-31.7-1.2-43.6-6.4-44.3-6.8c0,0,0,0,0,0v-2.9l-5.2,1.5l-9.2,2.7l-3.6,1.1c-8.8,2.6-19.8,4.4-26.7,5.3l-8.2,1v0l-14.8,1.2
		c-4.5,0.4-9.9,0.6-15.3,0.6c-3.7,0-7.2-0.1-10.5-0.3V11.5c-27.8,6.1-56.2,5.5-56.2,5.5l0.6,11.2c0.1,2.5,0.8,15.5,1.1,26.2
		c0.1,2.1,0.1,4.2,0.2,6.3c-2.8-0.5-5.4-0.7-7.8-0.7c-11.1,0-21.3,5-29,10.7c-0.3-0.9-0.5-1.9-0.7-2.9l-2.4-11l-13.1,1.8
		c-4.4,0.6-8.7,1.5-12.8,2.7v-3.9h-0.1c-10.7,0-19.7-0.6-27.3-1.4c-0.1,0-0.2,0-0.2,0c-3.2-0.3-6.3-0.7-8.6-1.1c0,0-0.1,0-0.1,0
		c-12.8-2-19.2-4.5-19.9-4.7l-0.1,0l1,16c0.1,1.8,0.2,4.2,0.3,6.8c-10.3-9.5-22.4-11.7-31.4-11.7c-22.5,0-39,6.9-49,20.2
		C116,65,100.4,62,90.1,62c-5.5,0-12.2,0.8-18.9,2.4l0.2-7.7l-15.9,2.1c-8.8,1.1-20.4,1.9-29.7,1.9H8.9c0,0,0,0,0,0.1L9,61.1
		l1.4,5.5c0.1,0.3,0.1,0.5,0.2,0.8l1.9,7.2c0.4,1.7,0.8,4.1,1.2,6.9c0,0,0,0.1,0,0.1c4.6,23.6,9.9,64.3,3.2,105.7
		c0,0,63-10.9,110.8-0.2V168c1.2,1.2,2.5,2.3,3.8,3.3c10.4,8.2,27.9,14,42.6,14c3.8,0,14.9-1.5,26-4.8l-0.4,2.5
		c0,0,22.1-2.3,60.2,5.7l-1.4-15c-1.5-16.1-1.1-47.8-0.6-64.9c2.1-2,5-3.6,8.8-4.7c-1.6,6.9-2.7,14.7-2.7,23
		c0,38.1,23.5,58.1,46.6,58.1c6.4,0,14.5-1.3,22-3.4l5.1,8.9l0,0c0.8-0.6,15.6-10.6,42.5-8.7l-0.3-3.3c0,0,0,0,0,0
		c1.8,0.9,2.9,1.8,4.3,2.6c1.6,0.8,3.6,1.7,5.9,2.4c0.1,0,0.1,0.1,0.2,0.1c6.6,2,16.1,2.9,27.1-1.9l0.5,4.9c0,0,13.7-3.5,40.6,2
		c-0.1,13.9,0,24.4,0.2,29.3l0.7,13.7l15.8-3c6.7-1.3,15.5-2.2,26.2-2.6l14.6-0.6l-1.9-12.3c-1-6.6-1.5-12.3-1.5-17.9v-6.7
		c2.9,0.7,6.1,1.2,8.5,1.2c5.5,0,22.2,0,35.3-15.6c9.4-10.8,13.8-24.6,13.8-43.6C570.2,102.9,566.6,87.8,558,78z M516.8,158
		c-3.3,0-13-2-17.9-6.7c0-2.7-0.5-22.1-0.5-33.9c0-5.8-0.3-16.5,0-19.2c2.4-1.3,9.5-3.3,13.8-3.3c11.7,0,15.7,12,15.7,35.9
		C527.9,156.2,522.5,158,516.8,158z M527.9,130.8c0,25.4-5.4,27.2-11.1,27.2c-3.3,0-13-2-17.9-6.7c0-2.7-0.5-22.1-0.5-33.9
		c0-5.8-0.3-16.5,0-19.2c2.4-1.3,9.5-3.3,13.8-3.3C523.8,94.9,527.9,106.9,527.9,130.8z"/>
	<path class="st1" d="M337,27.5c0,0,0.8,14.7,1.1,26.5c0.3,8.9,0.5,18.3,0.5,22.3c-6-1.8-14.7-4.9-21.7-4.9
		c-13.3,0-27.1,12.9-30.7,18.3c-3.3,4.9-8.7,19-8.7,37.2c0,28.5,15.7,46.6,33.1,46.6c8.1,0,21.2-2.9,28.2-7.1l5.4,9.4
		c6.9-2.4,11.8-3.7,20.7-4.4c0.1,0.6,0.3,0.8,0.5,0c0-8.3,0-71.8,0-75.6V25.1C357.9,26.2,337,27.5,337,27.5z M337.8,148.6
		c-4.1,3.6-10,5.8-14.9,5.8c-11.4,0-16.6-15.6-16.6-36.1c0-21.2,4.6-26.1,14.1-26.1c5.2,0,13.3,2.2,17.1,4.5
		C339.1,105.6,337.8,133.7,337.8,148.6z"/>
	<path class="st2" d="M430.3,174.7l-0.8-8.3c-4.6,1.6-26.1,6.9-31.8,6.9c-7.9,0-13.8-2.9-17.4-9.4c-1.4-5.6-1.9-19-1.9-25.9
		c0-10.3-0.3-37-0.8-41.7c-0.3-2.9-0.8-16.3-1.4-21c10.3,0.7,21.7,0.4,29.9-0.2c0,8.7,0.5,65.8,0.5,67.1c0,7.6,1.9,9.4,7.6,9.4
		c5.2,0,12.8-2,16.8-4.7c0-10.5,0.3-38.6-0.5-52.9c-0.3-6.2,0-16.1-0.8-21.2c7.6-0.9,19.5-2.9,29.3-5.8v109.7
		C451.4,175.8,438.7,174.5,430.3,174.7z"/>
	<path class="st2" d="M547.2,84.8c-2.2-2.5-5.4-4.2-10-6c-4.6-1.8-7.9-2.2-12.8-2.2c-5.4,0-19.8,1.6-24.7,2.7c0.3-2,0.5-5.6,1.4-9.1
		c-6.5-0.9-19.5-2-29.3-4.5c0,0,0.3,41.7,0.5,65.3c0,36.1-0.5,75.8,0,86.3c8.2-1.6,18.2-2.5,28.5-2.9c-1.1-6.9-1.6-13.2-1.6-19.4
		v-23.4c3.8,2.2,18.5,6.5,22,6.5c8.1,0,16.5-1.6,24.4-10.9c7.6-8.7,11.1-20.3,11.1-36.8C556.7,105.6,553.7,92.2,547.2,84.8z
		 M516.8,158c-3.3,0-13-2-17.9-6.7c0-2.7-0.5-22.1-0.5-33.9c0-5.8-0.3-16.5,0-19.2c2.4-1.3,9.5-3.3,13.8-3.3
		c11.7,0,15.7,12,15.7,35.9C527.9,156.2,522.5,158,516.8,158z"/>
	<path class="st1" d="M90.1,73.4c-10,0-25,3.8-32.8,8l0.3-11.4c-10.3,1.3-22.8,2-31.7,2c1.6,6.2,2.4,18.3,3.2,29.9
		c1.4,20.5,4.1,59.3,2.7,73.1c10-0.4,20.1-0.4,29.6-1.6c-1.4-9.8-3.5-64.7-3.8-74c5.7-3.1,15.7-6.3,20.9-6.3c7.3,0,7.3,6.7,7.3,15.2
		c-0.3,6.7,0.3,28.1,0.3,34.1c0,4-0.5,16.7-1.6,28.5c11.9,0.2,18.5,0.9,29.9,2.5v-69.4C114.2,82.8,106.1,73.4,90.1,73.4z"/>
	<path class="st1" d="M174.1,173.8c-10.9,0-25.2-4.5-33.4-10.9c-11.4-8.7-15.5-23.6-15.5-39.7c0-41.3,21.7-50.6,47.2-50.6
		c24.2,0,35.8,22.7,37.7,54.2c-22.8,1.6-49.9,2.5-56.7,2.7c0.3,7.6,2.4,13.4,6.2,17.4c2.4,2.7,9.8,6.5,16,6.5
		c5.7,0,17.9-1.8,29.3-6.5c1.9,5.1,4.9,9.6,8.4,14C207.5,167.8,182,173.8,174.1,173.8z M168.4,90.8c-7.9,0-16,8-14.9,21.2
		c2.2,0.2,9.8,0.4,12.5,0c4.9-0.2,13.3-0.9,16.3-1.1C180.9,99.8,177.4,90.8,168.4,90.8z"/>
	<path class="st1" d="M244.5,104.9c-0.5,16.7-1.1,51.7,0.5,69.6c-10.6-1.8-18.5-2.5-30.1-2.7c1.6-11.4,2.7-38.8,2.7-43
		c0-4.9,0-25.4,0-28.3c0-7.4,0-26.5-0.5-35c9.2,2.2,28.2,2.9,28.2,2.9v12.5c5.4-4.5,15.2-9.1,28.5-10.9c1.6,7.6,3.8,12.5,7.6,20.5
		C260.3,91.1,250,97.3,244.5,104.9z"/>
	<g>
		<path class="st0" d="M602,42.7c0,9.7-7.8,17.9-17.9,17.9c-10,0-17.7-8.1-17.7-17.8c0-9.7,7.8-17.9,17.8-17.9
			C594.3,24.9,602,33,602,42.7z M598.7,42.7c0-7.9-6.2-14.3-14.4-14.3c-8.2,0-14.5,6.6-14.5,14.4s6.2,14.3,14.4,14.3
			C592.4,57.2,598.7,50.6,598.7,42.7z M588.3,45.2l3.9,5.8h-3.8l-3.1-5.1h-0.6h-3.9V51h-3.3V33.5h7.2c4.6,0,7.1,2.2,7.1,6
			C591.8,42.2,590.6,44.2,588.3,45.2z M580.8,43h3.9c2.5,0,4-1.3,4-3.5c0-2.2-1.5-3.3-4-3.3h-3.9V43z"/>
	</g>
	<g>
		<path class="st1" d="M18.9,214.9c0-5.3,4-8.5,8.2-8.5c4.1,0,6.6,2.4,7.3,5.3l-2.6,0.9c-0.5-2-2-3.6-4.7-3.6
			c-2.7,0-5.4,1.9-5.4,5.9c0,3.8,2.6,5.8,5.4,5.8c2.7,0,4.3-1.7,4.8-3.6l2.5,0.8c-0.7,2.8-3.2,5.4-7.4,5.4
			C22.7,223.4,18.9,220.2,18.9,214.9z"/>
		<path class="st1" d="M44.3,206.5c4.3,0,8.3,3.1,8.3,8.5c0,5.3-4,8.5-8.3,8.5c-4.3,0-8.3-3.1-8.3-8.5
			C36.1,209.6,40.1,206.5,44.3,206.5z M44.3,220.8c2.8,0,5.5-1.9,5.5-5.9c0-3.9-2.7-5.9-5.5-5.9c-2.7,0-5.4,1.9-5.4,5.9
			C38.9,218.8,41.6,220.8,44.3,220.8z"/>
		<path class="st1" d="M60.3,216.6h-2v6.4h-2.8v-16.2h6.2c3.1,0,5.1,2.2,5.1,4.9c0,2.3-1.4,4.1-3.7,4.6l3.7,6.7h-3.1L60.3,216.6z
			 M61.3,214.2c1.7,0,2.8-1,2.8-2.5c0-1.5-1.1-2.5-2.8-2.5h-3v5H61.3z"/>
		<path class="st1" d="M72.6,216.7v6.3h-2.8v-16.2h6c3.1,0,5.2,2.1,5.2,5c0,2.9-2.1,5-5.2,5H72.6z M75.4,214.3c1.7,0,2.8-1,2.8-2.5
			c0-1.6-1.1-2.5-2.8-2.5h-2.9v5H75.4z"/>
		<path class="st1" d="M90.9,206.5c4.3,0,8.3,3.1,8.3,8.5c0,5.3-4,8.5-8.3,8.5c-4.3,0-8.3-3.1-8.3-8.5
			C82.6,209.6,86.6,206.5,90.9,206.5z M90.9,220.8c2.8,0,5.5-1.9,5.5-5.9c0-3.9-2.7-5.9-5.5-5.9c-2.7,0-5.4,1.9-5.4,5.9
			C85.4,218.8,88.2,220.8,90.9,220.8z"/>
		<path class="st1" d="M106.9,216.6h-2v6.4h-2.8v-16.2h6.2c3.1,0,5.1,2.2,5.1,4.9c0,2.3-1.4,4.1-3.7,4.6l3.7,6.7h-3.1L106.9,216.6z
			 M107.8,214.2c1.7,0,2.8-1,2.8-2.5c0-1.5-1.1-2.5-2.8-2.5h-3v5H107.8z"/>
		<path class="st1" d="M125.9,219H119l-1.5,4.1h-2.9l6.3-16.2h3.2l6.3,16.2h-3L125.9,219z M120,216.4h5l-2.5-6.6L120,216.4z"/>
		<path class="st1" d="M137.5,209.4v13.7h-2.8v-13.7h-5.3v-2.6h13.3v2.6H137.5z"/>
		<path class="st1" d="M145,223.1v-16.2h10v2.6h-7.3v4.3h6.6v2.5h-6.6v4.3h7.3v2.6H145z"/>
		<path class="st1" d="M170.7,217c-0.6-0.1-1.7-0.1-2.9-0.1c0,1.1,0,2.5,0,3.1c-1,0-1.6,0-2.6,0.1c0.1-0.8,0.1-2.2,0.2-3.3
			c-1.1,0-2.2,0-2.9,0c0-0.6-0.1-1.3-0.2-2.1c0.8,0,1.8,0.1,3.1,0.1c0-1.1-0.1-2.5-0.1-3.1c1,0.1,1.7,0.2,2.4,0.2
			c0,0.6,0.1,1.9,0.1,2.8c1.2,0,2.3,0,3-0.1C170.6,215.5,170.7,216.2,170.7,217z"/>
		<path class="st1" d="M187.4,210.9c-0.2-1-1.1-2.6-3.3-2.6c-1.7,0-2.9,1.1-2.9,2.4c0,1.1,0.7,1.9,2,2.2l2.4,0.5
			c3,0.6,4.6,2.5,4.6,4.9c0,2.6-2.1,5.1-6,5.1c-4.3,0-6.3-2.8-6.5-5.2l2.7-0.8c0.2,1.8,1.4,3.4,3.9,3.4c2,0,3.1-1,3.1-2.3
			c0-1.1-0.8-2-2.3-2.3l-2.4-0.5c-2.6-0.5-4.3-2.2-4.3-4.8c0-2.8,2.6-5.2,5.8-5.2c4,0,5.5,2.4,5.9,4.3L187.4,210.9z"/>
		<path class="st1" d="M199.7,208.8v14.2h-2.9v-14.2h-5.5v-2.7h13.9v2.7H199.7z"/>
		<path class="st1" d="M216,218.8h-7.2l-1.6,4.2h-3l6.6-16.9h3.3l6.6,16.9h-3.1L216,218.8z M209.9,216.2h5.2l-2.6-6.9L209.9,216.2z"
			/>
		<path class="st1" d="M228,216.4h-2.1v6.7H223v-16.9h6.5c3.3,0,5.3,2.3,5.3,5.1c0,2.4-1.5,4.2-3.8,4.8l3.8,7h-3.2L228,216.4z
			 M229,213.8c1.8,0,2.9-1,2.9-2.6c0-1.6-1.1-2.6-2.9-2.6h-3.1v5.2H229z"/>
		<path class="st1" d="M244.5,208.8v14.2h-2.9v-14.2h-5.5v-2.7H250v2.7H244.5z"/>
		<path class="st1" d="M249.9,217.3v-2.5h6.7v2.5H249.9z"/>
		<path class="st1" d="M259.5,217.2v-11h2.8V217c0,2.4,1.3,3.7,3.5,3.7c2.2,0,3.5-1.3,3.5-3.7v-10.9h2.9v11c0,4.1-2.8,6.3-6.3,6.3
			C262.3,223.4,259.5,221.2,259.5,217.2z"/>
		<path class="st1" d="M278.9,216.4v6.6H276v-16.9h6.3c3.2,0,5.4,2.2,5.4,5.2c0,3-2.1,5.2-5.4,5.2H278.9z M281.9,213.9
			c1.8,0,2.9-1,2.9-2.6c0-1.6-1.1-2.6-2.9-2.6h-3v5.3H281.9z"/>
		<path class="st1" d="M302.6,217c-0.6-0.1-1.7-0.1-2.9-0.1c0,1.1,0,2.5,0,3.1c-1,0-1.6,0-2.6,0.1c0.1-0.8,0.1-2.2,0.2-3.3
			c-1.1,0-2.2,0-2.9,0c0-0.6-0.1-1.3-0.2-2.1c0.8,0,1.8,0.1,3.1,0.1c0-1.1-0.1-2.5-0.1-3.1c1,0.1,1.7,0.2,2.4,0.2
			c0,0.6,0.1,1.9,0.1,2.8c1.2,0,2.3,0,3-0.1C302.5,215.5,302.6,216.2,302.6,217z"/>
		<path class="st1" d="M310.7,223.1v-16.2h2.8v16.2H310.7z"/>
		<path class="st1" d="M323.8,209.4v13.7H321v-13.7h-5.3v-2.6h13.3v2.6H323.8z"/>
		<path class="st1" d="M345.2,211.4c-0.2-1-1-2.5-3.2-2.5c-1.6,0-2.8,1.1-2.8,2.3c0,1,0.6,1.8,1.9,2.1l2.3,0.5
			c2.9,0.6,4.4,2.4,4.4,4.7c0,2.5-2,4.9-5.8,4.9c-4.1,0-6-2.7-6.3-5l2.6-0.7c0.2,1.7,1.4,3.3,3.7,3.3c1.9,0,3-1,3-2.2
			c0-1.1-0.8-1.9-2.2-2.2l-2.3-0.5c-2.5-0.5-4.1-2.1-4.1-4.6c0-2.7,2.5-5,5.5-5c3.8,0,5.3,2.3,5.7,4.1L345.2,211.4z"/>
		<path class="st1" d="M357.1,209.4v13.7h-2.8v-13.7H349v-2.6h13.3v2.6H357.1z"/>
		<path class="st1" d="M372.7,219h-6.9l-1.5,4.1h-2.9l6.3-16.2h3.2l6.3,16.2h-3L372.7,219z M366.8,216.4h5l-2.5-6.6L366.8,216.4z"/>
		<path class="st1" d="M379.4,223.1v-16.2h10.1v2.6h-7.4v4.6h6.6v2.5h-6.6v6.6H379.4z"/>
		<path class="st1" d="M392.2,223.1v-16.2h10.1v2.6H395v4.6h6.6v2.5H395v6.6H392.2z"/>
		<path class="st1" d="M405,223.1v-16.2h2.8v16.2H405z"/>
		<path class="st1" d="M422.5,223.1l-8-12.3v12.3h-2.8v-16.2h3.5l7.4,11.5v-11.5h2.8v16.2H422.5z"/>
		<path class="st1" d="M441.4,223.1l-0.2-2.1c-0.7,1.2-2.4,2.4-5,2.4c-4.2,0-8-3.1-8-8.5c0-5.3,4-8.5,8.2-8.5c3.9,0,6.5,2.3,7.3,4.9
			l-2.6,1c-0.6-1.8-2.2-3.4-4.7-3.4c-2.6,0-5.4,1.9-5.4,5.9c0,4,2.6,6,5.4,6c3.3,0,4.5-2.2,4.7-3.6h-5.4v-2.4h8v8.2H441.4z"/>
	</g>
</g>
</svg>
