<?xml version="1.0" encoding="utf-8"?>
<!-- Generator: Adobe Illustrator 24.2.1, SVG Export Plug-In . SVG Version: 6.00 Build 0)  -->
<svg version="1.1" id="Layer_1" xmlns="http://www.w3.org/2000/svg" xmlns:xlink="http://www.w3.org/1999/xlink" x="0px" y="0px"
	 viewBox="0 0 599.3 231.3" style="enable-background:new 0 0 599.3 231.3;" xml:space="preserve">
<style type="text/css">
	.st0{fill:#081C4F;}
	.st1{fill:#A9FC88;}
	.st2{fill:#FFFFFF;}
	.st3{fill:#116871;}
</style>
<g>
	<path class="st0" d="M556.3,72.1c-4.4-5-10.4-7.7-15.2-9.6c-7-2.7-12.4-3.3-18.4-3.3c-2,0-5,0.2-8.5,0.5l1.1-4.9
		c-31.7-1.2-43.6-6.4-44.3-6.8c0,0,0,0,0,0v-2.9l-5.2,1.5l-9.2,2.7l-3.6,1.1c-8.8,2.6-19.8,4.4-26.7,5.3l-8.2,1v0L403.1,58
		c-4.5,0.4-9.9,0.6-15.3,0.6c-3.7,0-7.2-0.1-10.5-0.3V5.6c-27.8,6.1-56.2,5.5-56.2,5.5l0.6,11.2c0.1,2.5,0.8,15.5,1.1,26.2
		c0.1,2.1,0.1,4.2,0.2,6.3c-2.8-0.5-5.4-0.7-7.8-0.7c-11.1,0-21.3,5-29,10.7c-0.3-0.9-0.5-1.9-0.7-2.9l-2.4-11L270,52.8
		c-4.4,0.6-8.7,1.5-12.8,2.7v-3.9H257c-10.7,0-19.7-0.6-27.3-1.4c-0.1,0-0.2,0-0.2,0c-3.2-0.3-6.3-0.7-8.6-1.1c0,0-0.1,0-0.1,0
		c-12.8-2-19.2-4.5-19.9-4.7l-0.1,0l1,16c0.1,1.8,0.2,4.2,0.3,6.8c-10.3-9.5-22.4-11.7-31.4-11.7c-22.5,0-39,6.9-49,20.2
		c-7.5-16.3-23-19.3-33.4-19.3c-5.5,0-12.2,0.8-18.9,2.4l0.2-7.7L53.7,53c-8.8,1.1-20.4,1.9-29.7,1.9H7.2c0,0,0,0,0,0.1l0.1,0.3
		l1.4,5.5c0.1,0.3,0.1,0.5,0.2,0.8l1.9,7.2c0.4,1.7,0.8,4.1,1.2,6.9c0,0,0,0.1,0,0.1c4.6,23.6,9.9,64.3,3.2,105.7
		c0,0,63.1-10.9,110.8-0.2v-19.1c1.2,1.2,2.5,2.3,3.8,3.3c10.4,8.2,27.9,14,42.6,14c3.8,0,14.9-1.5,26-4.8l-0.4,2.5
		c0,0,22.1-2.3,60.2,5.7l-1.4-15c-1.5-16.1-1.1-47.8-0.6-64.9c2.1-2,5-3.6,8.8-4.7c-1.6,6.9-2.7,14.7-2.7,23
		c0,38.1,23.5,58.1,46.6,58.1c6.4,0,14.6-1.3,22-3.4l5.1,8.9l0,0c0.8-0.6,15.6-10.6,42.5-8.7l-0.3-3.3c0,0,0,0,0,0
		c1.8,0.9,2.9,1.8,4.3,2.6c1.6,0.8,3.6,1.7,5.9,2.4c0.1,0,0.1,0.1,0.2,0.1c6.6,2,16.1,2.9,27.1-1.9l0.5,4.9c0,0,13.7-3.5,40.6,2
		c-0.1,13.9,0,24.4,0.2,29.3l0.7,13.7l15.8-3c6.7-1.3,15.5-2.2,26.2-2.6l14.6-0.6l-1.9-12.3c-1-6.6-1.5-12.3-1.5-17.9v-6.7
		c2.9,0.7,6.1,1.2,8.5,1.2c5.5,0,22.2,0,35.3-15.6c9.4-10.8,13.8-24.6,13.8-43.6C568.5,97.1,564.9,81.9,556.3,72.1z M515,152.2
		c-3.3,0-13-2-17.9-6.7c0-2.7-0.5-22.1-0.5-33.9c0-5.8-0.3-16.5,0-19.2c2.4-1.3,9.5-3.3,13.8-3.3c11.7,0,15.7,12,15.7,35.9
		C526.2,150.4,520.7,152.2,515,152.2z M526.2,124.9c0,25.4-5.4,27.2-11.1,27.2c-3.3,0-13-2-17.9-6.7c0-2.7-0.5-22.1-0.5-33.9
		c0-5.8-0.3-16.5,0-19.2c2.4-1.3,9.5-3.3,13.8-3.3C522.1,89,526.2,101.1,526.2,124.9z"/>
	<path class="st1" d="M428.6,168.9l-0.8-8.3c-4.6,1.6-26.1,6.9-31.8,6.9c-7.9,0-13.8-2.9-17.4-9.4c-1.4-5.6-1.9-19-1.9-25.9
		c0-10.3-0.3-37-0.8-41.7c-0.3-2.9-0.8-16.3-1.4-21c10.3,0.7,21.7,0.4,29.9-0.2c0,8.7,0.5,65.8,0.5,67.1c0,7.6,1.9,9.4,7.6,9.4
		c5.2,0,12.8-2,16.8-4.7c0-10.5,0.3-38.6-0.5-52.9c-0.3-6.2,0-16.1-0.8-21.2c7.6-0.9,19.5-2.9,29.3-5.8v109.7
		C449.7,170,437,168.6,428.6,168.9z M545.4,79c-2.2-2.5-5.4-4.2-10-6c-4.6-1.8-7.9-2.2-12.8-2.2c-5.4,0-19.8,1.6-24.7,2.7
		c0.3-2,0.5-5.6,1.4-9.1c-6.5-0.9-19.5-2-29.3-4.5c0,0,0.3,41.7,0.5,65.4c0,36.1-0.5,75.8,0,86.3c8.2-1.6,18.2-2.5,28.5-2.9
		c-1.1-6.9-1.6-13.2-1.6-19.4v-23.4c3.8,2.2,18.5,6.5,22,6.5c8.1,0,16.5-1.6,24.4-10.9c7.6-8.7,11.1-20.3,11.1-36.8
		C554.9,99.7,551.9,86.4,545.4,79z M515,152.2c-3.3,0-13-2-17.9-6.7c0-2.7-0.5-22.1-0.5-33.9c0-5.8-0.3-16.5,0-19.2
		c2.4-1.3,9.5-3.3,13.8-3.3c11.7,0,15.7,12,15.7,35.9C526.2,150.4,520.7,152.2,515,152.2z"/>
	<path class="st2" d="M363.8,165.5c-9.2,0.7-14.1,2-21.2,4.5l-5.4-9.4c-7.1,4.2-20.1,7.1-28.2,7.1c-17.4,0-33.1-18.1-33.1-46.6
		c0-18.3,5.4-32.3,8.7-37.2c3.5-5.4,17.4-18.3,30.7-18.3c7.1,0,15.7,3.1,21.7,4.9c0-4-0.3-13.4-0.5-22.3
		c-0.3-11.8-1.1-26.5-1.1-26.5s20.9-1.3,28.5-2.5v70.7C363.8,93.7,363.8,157.3,363.8,165.5C362.9,168.9,362.7,156.2,363.8,165.5z
		 M335.8,90.8c-3.8-2.2-11.9-4.5-17.1-4.5c-9.5,0-14.1,4.9-14.1,26.1c0,20.5,5.2,36.1,16.6,36.1c4.9,0,10.9-2.2,14.9-5.8
		C336.1,127.8,337.4,99.7,335.8,90.8z M88.3,67.6c-10,0-25,3.8-32.8,8l0.3-11.4c-10.3,1.3-22.8,2-31.7,2c1.6,6.2,2.4,18.3,3.2,29.9
		c1.4,20.5,4.1,59.3,2.7,73.1c10-0.4,20.1-0.4,29.6-1.6c-1.4-9.8-3.5-64.7-3.8-74c5.7-3.1,15.7-6.3,20.9-6.3c7.3,0,7.3,6.7,7.3,15.2
		c-0.3,6.7,0.3,28.1,0.3,34.1c0,4-0.5,16.7-1.6,28.5c11.9,0.2,18.5,0.9,29.9,2.5V98.4C112.5,77,104.3,67.6,88.3,67.6z M172.4,168
		c-10.9,0-25.2-4.5-33.4-10.9c-11.4-8.7-15.5-23.6-15.5-39.7c0-41.3,21.7-50.6,47.2-50.6c24.2,0,35.8,22.7,37.7,54.2
		c-22.8,1.6-49.9,2.5-56.7,2.7c0.3,7.6,2.4,13.4,6.2,17.4c2.4,2.7,9.8,6.5,16,6.5c5.7,0,17.9-1.8,29.3-6.5c1.9,5.1,4.9,9.6,8.4,14
		C205.8,162,180.3,168,172.4,168z M166.7,85c-7.9,0-16,8-14.9,21.2c2.2,0.2,9.8,0.4,12.5,0c4.9-0.2,13.3-0.9,16.3-1.1
		C179.2,93.9,175.7,85,166.7,85z M242.8,99.1c-0.5,16.7-1.1,51.7,0.5,69.6c-10.6-1.8-18.5-2.5-30.1-2.7c1.6-11.4,2.7-38.8,2.7-43
		c0-4.9,0-25.4,0-28.3c0-7.4,0-26.5-0.5-35c9.2,2.2,28.2,2.9,28.2,2.9V75c5.4-4.5,15.2-9.1,28.5-10.9c1.6,7.6,3.8,12.5,7.6,20.5
		C258.5,85.2,248.2,91.5,242.8,99.1z"/>
	<g>
		<g>
			<path class="st3" d="M14.8,208.6c0-5.4,4-8.6,8.3-8.6c4.2,0,6.7,2.5,7.4,5.4l-2.6,0.9c-0.5-2-2-3.6-4.8-3.6c-2.7,0-5.4,2-5.4,6
				c0,3.9,2.7,5.9,5.5,5.9c2.8,0,4.4-1.8,4.9-3.6l2.6,0.8c-0.7,2.8-3.3,5.5-7.5,5.5C18.7,217.2,14.8,214,14.8,208.6z"/>
			<path class="st3" d="M40.7,200c4.3,0,8.4,3.2,8.4,8.6c0,5.4-4.1,8.6-8.4,8.6s-8.4-3.2-8.4-8.6C32.3,203.2,36.3,200,40.7,200z
				 M40.7,214.6c2.8,0,5.5-2,5.5-6s-2.7-6-5.5-6c-2.8,0-5.5,2-5.5,6S37.9,214.6,40.7,214.6z"/>
			<path class="st3" d="M56.9,210.4h-2v6.5H52v-16.5h6.3c3.2,0,5.2,2.2,5.2,5c0,2.4-1.4,4.1-3.7,4.7l3.7,6.8h-3.2L56.9,210.4z
				 M57.9,207.9c1.7,0,2.8-1,2.8-2.5c0-1.5-1.1-2.5-2.8-2.5h-3v5H57.9z"/>
			<path class="st3" d="M69.3,210.4v6.4h-2.8v-16.5h6.1c3.2,0,5.3,2.1,5.3,5c0,2.9-2.1,5-5.3,5H69.3z M72.2,208c1.8,0,2.8-1,2.8-2.5
				c0-1.6-1.1-2.6-2.8-2.6h-2.9v5.1H72.2z"/>
			<path class="st3" d="M87.9,200c4.3,0,8.4,3.2,8.4,8.6c0,5.4-4.1,8.6-8.4,8.6s-8.4-3.2-8.4-8.6C79.5,203.2,83.6,200,87.9,200z
				 M87.9,214.6c2.8,0,5.5-2,5.5-6s-2.7-6-5.5-6c-2.8,0-5.5,2-5.5,6S85.1,214.6,87.9,214.6z"/>
			<path class="st3" d="M104.1,210.4h-2v6.5h-2.8v-16.5h6.3c3.2,0,5.2,2.2,5.2,5c0,2.4-1.4,4.1-3.7,4.7l3.7,6.8h-3.2L104.1,210.4z
				 M105.1,207.9c1.7,0,2.8-1,2.8-2.5c0-1.5-1.1-2.5-2.8-2.5h-3v5H105.1z"/>
			<path class="st3" d="M123.4,212.7h-7l-1.5,4.1h-3l6.4-16.5h3.2l6.4,16.5h-3L123.4,212.7z M117.4,210.2h5l-2.5-6.7L117.4,210.2z"
				/>
			<path class="st3" d="M135.2,203v13.9h-2.8V203H127v-2.6h13.5v2.6H135.2z"/>
			<path class="st3" d="M142.8,216.9v-16.5H153v2.6h-7.4v4.4h6.7v2.5h-6.7v4.4h7.4v2.6H142.8z"/>
			<path class="st3" d="M168.8,210.8c-0.6-0.1-1.7-0.1-2.9-0.1c0,1.1,0,2.6,0,3.1c-1,0-1.6,0-2.6,0.1c0.1-0.8,0.1-2.2,0.2-3.4
				c-1.1,0-2.3,0-2.9,0c0-0.6-0.1-1.3-0.2-2.1c0.8,0,1.8,0.1,3.1,0.1c0-1.2-0.1-2.6-0.1-3.2c1,0.1,1.7,0.2,2.4,0.2
				c0,0.6,0.1,2,0.1,2.9c1.2,0,2.3,0,3.1-0.1C168.8,209.2,168.8,209.9,168.8,210.8z"/>
			<path class="st3" d="M185.4,205c-0.2-1-1-2.5-3.2-2.5c-1.7,0-2.8,1.1-2.8,2.4c0,1,0.7,1.8,1.9,2.1l2.4,0.5
				c2.9,0.6,4.5,2.4,4.5,4.7c0,2.6-2.1,5-5.8,5c-4.2,0-6.1-2.7-6.4-5.1l2.6-0.7c0.2,1.7,1.4,3.3,3.8,3.3c2,0,3-1,3-2.3
				c0-1.1-0.8-1.9-2.2-2.2l-2.3-0.5c-2.5-0.5-4.2-2.2-4.2-4.6c0-2.8,2.5-5,5.6-5c3.9,0,5.4,2.4,5.8,4.2L185.4,205z"/>
			<path class="st3" d="M197.4,203v13.9h-2.8V203h-5.4v-2.6h13.5v2.6H197.4z"/>
			<path class="st3" d="M213.2,212.7h-7l-1.5,4.1h-3l6.4-16.5h3.2l6.4,16.5h-3L213.2,212.7z M207.2,210.2h5l-2.5-6.7L207.2,210.2z"
				/>
			<path class="st3" d="M224.9,210.4h-2v6.5h-2.8v-16.5h6.3c3.2,0,5.2,2.2,5.2,5c0,2.4-1.4,4.1-3.7,4.7l3.7,6.8h-3.2L224.9,210.4z
				 M225.9,207.9c1.7,0,2.8-1,2.8-2.5c0-1.5-1.1-2.5-2.8-2.5h-3v5H225.9z"/>
			<path class="st3" d="M241,203v13.9h-2.8V203h-5.4v-2.6h13.5v2.6H241z"/>
			<path class="st3" d="M246.3,211.3v-2.4h6.6v2.4H246.3z"/>
			<path class="st3" d="M255.6,211.1v-10.8h2.8V211c0,2.3,1.3,3.6,3.4,3.6c2.1,0,3.4-1.3,3.4-3.6v-10.6h2.8v10.8
				c0,4-2.7,6.1-6.2,6.1C258.3,217.2,255.6,215.1,255.6,211.1z"/>
			<path class="st3" d="M274.5,210.4v6.4h-2.8v-16.5h6.1c3.2,0,5.3,2.1,5.3,5c0,2.9-2.1,5-5.3,5H274.5z M277.4,208
				c1.8,0,2.8-1,2.8-2.5c0-1.6-1.1-2.6-2.8-2.6h-2.9v5.1H277.4z"/>
			<path class="st3" d="M298.1,210.8c-0.6-0.1-1.7-0.1-2.9-0.1c0,1.1,0,2.6,0,3.1c-1,0-1.6,0-2.6,0.1c0.1-0.8,0.1-2.2,0.2-3.4
				c-1.1,0-2.3,0-2.9,0c0-0.6-0.1-1.3-0.2-2.1c0.8,0,1.8,0.1,3.1,0.1c0-1.2-0.1-2.6-0.1-3.2c1,0.1,1.7,0.2,2.4,0.2
				c0,0.6,0.1,2,0.1,2.9c1.2,0,2.3,0,3.1-0.1C298.1,209.2,298.1,209.9,298.1,210.8z"/>
			<path class="st3" d="M306.4,216.9v-16.5h2.8v16.5H306.4z"/>
			<path class="st3" d="M319.6,203v13.9h-2.8V203h-5.4v-2.6H325v2.6H319.6z"/>
			<path class="st3" d="M341.4,205c-0.2-1-1-2.5-3.2-2.5c-1.7,0-2.8,1.1-2.8,2.4c0,1,0.7,1.8,1.9,2.1l2.4,0.5
				c2.9,0.6,4.5,2.4,4.5,4.7c0,2.6-2.1,5-5.8,5c-4.2,0-6.1-2.7-6.4-5.1l2.6-0.7c0.2,1.7,1.4,3.3,3.8,3.3c2,0,3-1,3-2.3
				c0-1.1-0.8-1.9-2.2-2.2l-2.3-0.5c-2.5-0.5-4.2-2.2-4.2-4.6c0-2.8,2.5-5,5.6-5c3.9,0,5.4,2.4,5.8,4.2L341.4,205z"/>
			<path class="st3" d="M353.4,203v13.9h-2.8V203h-5.4v-2.6h13.5v2.6H353.4z"/>
			<path class="st3" d="M369.3,212.7h-7l-1.5,4.1h-3l6.4-16.5h3.2l6.4,16.5h-3L369.3,212.7z M363.3,210.2h5l-2.5-6.7L363.3,210.2z"
				/>
			<path class="st3" d="M376.1,216.9v-16.5h10.3v2.6h-7.5v4.6h6.7v2.6h-6.7v6.7H376.1z"/>
			<path class="st3" d="M389,216.9v-16.5h10.3v2.6h-7.5v4.6h6.7v2.6h-6.7v6.7H389z"/>
			<path class="st3" d="M402,216.9v-16.5h2.8v16.5H402z"/>
			<path class="st3" d="M419.7,216.9l-8.1-12.5v12.5h-2.8v-16.5h3.6l7.5,11.7v-11.7h2.8v16.5H419.7z"/>
			<path class="st3" d="M439,216.9l-0.2-2.1c-0.7,1.2-2.4,2.4-5,2.4c-4.3,0-8.1-3.2-8.1-8.6c0-5.4,4-8.6,8.3-8.6c4,0,6.6,2.3,7.4,5
				l-2.6,1c-0.6-1.9-2.2-3.4-4.8-3.4c-2.7,0-5.5,1.9-5.5,6c0,4,2.6,6,5.4,6c3.3,0,4.6-2.3,4.7-3.7h-5.4v-2.4h8.1v8.4H439z"/>
		</g>
		<g>
			<g>
				<path class="st3" d="M592.1,39.6c0,9.7-7.8,17.9-17.9,17.9c-10,0-17.7-8.1-17.7-17.8s7.8-17.9,17.8-17.9
					C584.4,21.8,592.1,29.9,592.1,39.6z M588.8,39.6c0-7.9-6.3-14.3-14.4-14.3s-14.5,6.6-14.5,14.4c0,7.9,6.3,14.3,14.4,14.3
					C582.5,54.1,588.8,47.5,588.8,39.6z M578.4,42.1l3.9,5.8h-3.8l-3.1-5.1h-0.6h-3.9v5.1h-3.3V30.4h7.2c4.6,0,7.1,2.2,7.1,6
					C581.9,39.2,580.7,41.2,578.4,42.1z M570.9,39.9h3.9c2.5,0,4-1.3,4-3.5c0-2.2-1.5-3.3-4-3.3h-3.9V39.9z"/>
			</g>
		</g>
	</g>
</g>
</svg>
